<!DOCTYPE svg PUBLIC "-//W3C//DTD SVG 1.1//EN" "http://www.w3.org/Graphics/SVG/1.1/DTD/svg11.dtd">
<!-- Uploaded to: SVG Repo, www.svgrepo.com, Transformed by: SVG Repo Mixer Tools -->
<svg height="800px" width="800px" version="1.1" id="Layer_1" xmlns="http://www.w3.org/2000/svg" xmlns:xlink="http://www.w3.org/1999/xlink" viewBox="0 0 512.001 512.001" xml:space="preserve" fill="#ffff" stroke="#ffff">
<g id="SVGRepo_bgCarrier" stroke-width="0"/>
<g id="SVGRepo_tracerCarrier" stroke-linecap="round" stroke-linejoin="round"/>
<g id="SVGRepo_iconCarrier"> <path style="fill:#F59D00;" d="M404.921,225.357c-33.899-33.906-40.846-40.859-57.964-57.965c-3.304-3.301-7.898-4.967-12.549-4.564 l-67.556,5.92c-3.637,0.318-7.371,1.001-10.852,2.109v276.921c2.693,1.077,5.718,1.439,8.818,0.845 c18.603-3.573,16.237-4.946,125.062-113.771c7.867-7.869,12.733-18.305,13.701-29.389l5.908-67.556 C409.897,233.254,408.224,228.659,404.921,225.357z"/> <path style="fill:#127FB;" d="M420.835,285.961L288.57,153.696c-6.171-6.171-6.171-16.177,0-22.348l64.189-64.189 c6.17-6.171,16.177-6.171,22.348,0l132.266,132.265c6.171,6.17,6.171,16.177,0,22.348l-64.189,64.189 C437.015,292.129,427.006,292.131,420.835,285.961z"/> <path style="fill:#FFD15C;" d="M247.186,448.624c-15.839-3.043-23.434-12.152-29.885-18.603l-95.175-95.163 c-7.87-7.87-12.738-18.309-13.707-29.395l-5.908-67.555c-0.407-4.653,1.265-9.248,4.568-12.55 c28.576-28.583,40.023-40.036,57.964-57.965c3.304-3.301,7.9-4.968,12.549-4.564c70.9,6.213,81.476,4.166,96.93,19.613 c22.627,22.619,85.455,85.45,98.626,98.621c22.997,23.002,18.732,51.735,2.392,68.081l0,0c-8.059,8.068-18.562,12.805-29.842,13.522 c-1.478,23.26-20.088,41.873-43.351,43.352C300.589,433.741,274.799,453.918,247.186,448.624z"/> <g> <path style="fill:#F8B64C;" d="M373.148,281.063c-13.17-13.171-75.999-76.003-98.626-98.621 c-5.734-5.732-10.799-9.055-18.523-11.285v278.296c24.065,0.022,44.778-18.694,46.348-43.436 c23.262-1.479,41.874-20.091,43.351-43.352c11.28-0.716,21.781-5.454,29.842-13.522 C391.881,332.798,396.145,304.066,373.148,281.063z"/> <path style="fill:#F8B64C;" d="M263.567,344.889c-6.17-6.171-16.177-6.171-22.348,0c-6.171,6.171-6.171,16.177,0,22.348 l56.407,56.407c2.712-5.456,4.329-11.422,4.723-17.627c6.204-0.395,12.17-2.012,17.624-4.722L263.567,344.889z"/> </g> <path style="fill:#169ED;" d="M68.818,285.961L4.629,221.772c-6.171-6.171-6.171-16.177,0-22.348L136.894,67.159 c6.17-6.171,16.177-6.171,22.348,0l64.189,64.189c6.171,6.171,6.171,16.177,0,22.348L91.166,285.961 C84.997,292.129,74.988,292.131,68.818,285.961z"/> <g> <path style="fill:#F59D00;" d="M263.567,344.89c-2.161-2.161-4.794-3.548-7.566-4.196v41.325l41.625,41.625 c2.712-5.456,4.329-11.422,4.723-17.627c6.204-0.395,12.17-2.012,17.624-4.722L263.567,344.89z"/> <path style="fill:#F59D00;" d="M306.919,301.538c-6.17-6.171-16.177-6.171-22.348,0c-6.171,6.17-6.171,16.177,0,22.348 l56.407,56.407c2.711-5.455,4.329-11.422,4.723-17.627c6.203-0.394,12.167-2.011,17.623-4.722L306.919,301.538z"/> </g> </g>
</svg>