<!DOCTYPE svg PUBLIC "-//W3C//DTD SVG 1.1//EN" "http://www.w3.org/Graphics/SVG/1.1/DTD/svg11.dtd">
<!-- Uploaded to: SVG Repo, www.svgrepo.com, Transformed by: SVG Repo Mixer Tools -->
<svg height="800px" width="800px" version="1.1" id="Layer_1" xmlns="http://www.w3.org/2000/svg" xmlns:xlink="http://www.w3.org/1999/xlink" viewBox="0 0 512 512" xml:space="preserve" fill="#ffffff">
<g id="SVGRepo_bgCarrier" stroke-width="0"/>
<g id="SVGRepo_tracerCarrier" stroke-linecap="round" stroke-linejoin="round"/>
<g id="SVGRepo_iconCarrier"> <path style="fill:#84DBF;" d="M314.459,347.453l-41.766-41.767v-59.067c0-9.22-7.475-16.696-16.696-16.696 c-9.22,0-16.696,7.475-16.696,16.696v59.067l-41.767,41.767c-6.52,6.519-6.52,17.091,0,23.611c6.52,6.52,17.091,6.52,23.611,0 l34.853-34.853l34.852,34.853c6.518,6.521,17.09,6.519,23.611,0C320.983,364.545,320.979,353.973,314.459,347.453z"/> <g> <path style="fill:#FFD15C;" d="M256,95.006c-26.193,0-47.504-21.31-47.504-47.504S229.806,0,256,0s47.504,21.31,47.504,47.504 S282.193,95.006,256,95.006z"/> <path style="fill:#FFD15C;" d="M317.616,197.921H194.385c-11.382,0-19.44-11.168-15.839-21.975l20.538-61.615 c2.273-6.817,8.653-11.416,15.839-11.416h82.155c7.186,0,13.566,4.599,15.839,11.416l20.538,61.615 C337.053,186.744,329.006,197.921,317.616,197.921z"/> </g> <g> <path style="fill:#F8B64C;" d="M256,0v95.006c26.193,0,47.504-21.31,47.504-47.504S282.193,0,256,0z"/> <path style="fill:#F8B64C;" d="M333.454,175.947l-20.538-61.615c-2.273-6.817-8.653-11.416-15.839-11.416H256v95.006h61.615 C329.006,197.921,337.053,186.744,333.454,175.947z"/> </g> <g> <path style="fill:#FFD15C;" d="M399.666,409.085c-26.193,0-47.505-21.31-47.505-47.504s21.31-47.504,47.505-47.504 c26.194,0,47.504,21.31,47.504,47.504S425.86,409.085,399.666,409.085z"/> <path style="fill:#FFD15C;" d="M461.282,512H338.05c-11.382,0-19.44-11.168-15.839-21.975l20.539-61.615 c2.273-6.817,8.653-11.416,15.839-11.416h82.154c7.186,0,13.566,4.599,15.839,11.416l20.539,61.615 C480.719,500.823,472.673,512,461.282,512z"/> </g> <g> <path style="fill:#F8B64C;" d="M399.666,314.079v95.006c26.193,0,47.504-21.31,47.504-47.504S425.86,314.079,399.666,314.079z"/> <path style="fill:#F8B64C;" d="M477.12,490.025l-20.538-61.615c-2.273-6.817-8.653-11.416-15.839-11.416h-41.077V512h61.615 C472.673,512,480.719,500.823,477.12,490.025z"/> </g> <g> <path style="fill:#FFD15C;" d="M112.334,409.085c-26.193,0-47.504-21.31-47.504-47.504s21.31-47.504,47.504-47.504 s47.505,21.31,47.505,47.504S138.527,409.085,112.334,409.085z"/> <path style="fill:#FFD15C;" d="M173.949,512H50.719c-11.382,0-19.44-11.168-15.839-21.975l20.539-61.615 c2.273-6.817,8.653-11.416,15.839-11.416h82.154c7.186,0,13.566,4.599,15.839,11.416l20.539,61.615 C193.388,500.823,185.341,512,173.949,512z"/> </g> <g> <path style="fill:#F8B64C;" d="M112.335,314.079v95.006c26.193,0,47.504-21.31,47.504-47.504S138.528,314.079,112.335,314.079z"/> <path style="fill:#F8B64C;" d="M189.789,490.025l-20.538-61.615c-2.273-6.817-8.653-11.416-15.839-11.416h-41.077V512h61.615 C185.341,512,193.388,500.823,189.789,490.025z"/> </g> <path style="fill:#54C9E;" d="M314.459,347.453l-41.766-41.767v-59.067c0-9.219-7.473-16.693-16.692-16.696v106.292l34.848,34.849 c6.518,6.521,17.09,6.519,23.611,0C320.981,364.546,320.979,353.973,314.459,347.453z"/> </g>
</svg>