<?xml version="1.0" encoding="iso-8859-1"?>
<!-- Uploaded to: SVG Repo, www.svgrepo.com, Generator: SVG Repo Mixer Tools -->
<svg height="800px" width="800px" version="1.1" id="Layer_1" xmlns="http://www.w3.org/2000/svg" xmlns:xlink="http://www.w3.org/1999/xlink" 
	 viewBox="0 0 512 512" xml:space="preserve">
<path style="fill:#FFD15C;" d="M152.511,461.071H16.34c-9.024,0-16.34-7.316-16.34-16.34v-95.864c0-9.024,7.316-16.34,16.34-16.34
	h119.83c9.024,0,16.34,7.316,16.34,16.34V461.071z"/>
<path style="fill:#F8B64C;" d="M136.17,332.526H76.255v128.545h76.255V348.866C152.511,339.841,145.194,332.526,136.17,332.526z"/>
<path style="fill:#FFD15C;" d="M272.34,461.071H119.83V253.003c0-9.024,7.316-16.34,16.34-16.34H256
	c9.024,0,16.34,7.316,16.34,16.34V461.071z"/>
<path style="fill:#F8B64C;" d="M256,236.662h-59.915v224.409h76.255V253.003C272.34,243.977,265.024,236.662,256,236.662z"/>
<path style="fill:#FFD15C;" d="M495.66,461.071h-136.17V348.866c0-9.024,7.316-16.34,16.34-16.34h119.83
	c9.024,0,16.34,7.316,16.34,16.34v95.864C512,453.755,504.684,461.071,495.66,461.071z"/>
<path style="fill:#4CDBC4;" d="M392.17,461.071H239.66V199.524h-31.591c-14.238,0-21.673-17.035-11.963-27.47L303.952,56.137
	c6.466-6.95,17.474-6.936,23.928,0l107.847,115.917c9.699,10.424,2.29,27.47-11.963,27.47h-31.591v261.547H392.17z"/>
<path style="fill:#5AC2AD;" d="M435.725,172.053L327.878,56.137c-3.228-3.47-7.596-5.207-11.964-5.207v410.141h76.256V199.524
	h31.591C438.015,199.524,445.424,182.477,435.725,172.053z"/>
<path style="fill:#F8B64C;" d="M495.66,332.526h-59.915v128.545h59.915c9.024,0,16.34-7.316,16.34-16.34v-95.864
	C512,339.842,504.684,332.526,495.66,332.526z"/>
</svg>